<svg xmlns="http://www.w3.org/2000/svg" xmlns:xlink="http://www.w3.org/1999/xlink" version="1.0" x="0px" y="0px" width="67.118px" height="100px" viewBox="0 0 67.118 100" overflow="visible" enable-background="new 0 0 67.118 100" xml:space="preserve">
    <path d="M27.089,7.913c0,4.353-3.529,7.881-7.884,7.881c-4.356,0-7.882-3.528-7.882-7.881c0-4.355,3.526-7.885,7.882-7.885 C23.56,0.028,27.089,3.558,27.089,7.913z"/>
    <path d="M23.596,17.743c0-0.989-0.367-1.419-0.367-1.419l-2.914,0.729c-0.222-0.354-0.598-0.601-1.045-0.601 c-0.442,0-0.812,0.242-1.036,0.586l-2.856-0.714c0,0-0.367,0.43-0.367,1.419c0,1.012,0.367,1.448,0.367,1.448l2.918-0.719 c0.23,0.293,0.572,0.493,0.973,0.493c0.408,0,0.752-0.207,0.982-0.507l2.978,0.733C23.229,19.191,23.596,18.755,23.596,17.743z "/>
    <path d="M53.464,22.509L53.464,22.509c0.412-0.958,0.327-2.101-0.341-2.996c-0.997-1.336-2.887-1.61-4.225-0.613 c-0.296,0.222-0.531,0.492-0.721,0.786l-0.007-0.003l-0.038,0.065c-0.02,0.033-0.039,0.067-0.059,0.102l-4.843,8.392 l-6.812-8.568c-0.518-0.776-1.392-1.288-2.389-1.32l-0.102-0.05H25.02l-4.574,17.406h1.406h0.525v20.187h-12.5V35.709H9.692 h8.753l-4.574-17.406H3.118c-0.03,0-0.059-0.004-0.087-0.004c-1.635,0-2.962,1.302-3.021,2.924L0,21.235v20.108 c0,1.798,1.457,3.255,3.255,3.255h2.033l1.53,15.665H8.13l2.533,36.21c-1.644,0.694-2.76,2.014-2.76,3.526h21.672 c0-1.679-1.362-3.12-3.316-3.737l2.878-35.999h1.272l4.084-27.271l6.165,4.755c1.252,1.406,3.384,1.659,4.918,0.511 c0.527-0.394,0.903-0.908,1.15-1.471l0.008,0.004l6.567-13.94c0.045-0.077,0.075-0.16,0.113-0.239L53.464,22.509z"/>
    <path d="M65.854,13.853H65.13C64.724,7.238,59.538,1.919,52.98,1.318c0-0.022,0.014-0.042,0.014-0.062 C52.994,0.561,52.434,0,51.737,0c-0.692,0-1.253,0.561-1.253,1.256c0,0.021,0.011,0.04,0.011,0.062 c-6.56,0.601-11.74,5.921-12.146,12.534h-0.787c-0.699,0-1.265,0.566-1.265,1.265c0,0.699,0.566,1.266,1.265,1.266h28.292 c0.698,0,1.265-0.566,1.265-1.266C67.118,14.419,66.552,13.853,65.854,13.853z"/>
</svg>