<svg xmlns="http://www.w3.org/2000/svg" xmlns:xlink="http://www.w3.org/1999/xlink" version="1.1" id="Layer_1" x="0px" y="0px" width="50.0px" height="100px" viewBox="0 0 60 120" enable-background="new 0 0 60 120" xml:space="preserve">
<path fill="#000000" stroke="#000000" stroke-miterlimit="10" d="M13.788,102.545c-0.38,2.551-0.666,4.922,2.531,5.773  c2.797,1.009,7.878,1.683,13.681,1.683c5.806,0,10.89-0.674,13.687-1.683c3.191-0.852,2.906-3.223,2.528-5.773  c-1.521-10.177-4.112-24.349,0.227-43.008c4.161-17.924,7.552-40.308,5.671-48.593c0,0-0.27-0.946-1.305-0.946H9.365  c-1.188,0-1.493,1.024-1.493,1.024c-1.844,8.336,1.534,30.643,5.689,48.515C17.901,78.197,15.311,92.369,13.788,102.545z   M11.354,15.855c0.032-1.493,1.504-1.873,1.504-1.873h34.295c0,0,1.434,0.38,1.493,1.838c0.081,2.973-0.135,6.9-0.62,11.487h-8.011  v37.559c0,1.404-1.137,2.542-2.544,2.542c-1.401,0-2.536-1.138-2.536-2.542V27.307H11.974  C11.492,22.739,11.276,18.826,11.354,15.855z"/>
</svg>