<svg xmlns="http://www.w3.org/2000/svg" xmlns:xlink="http://www.w3.org/1999/xlink" version="1.1" id="Layer_1" x="0px" y="0px" width="100px" height="100px" viewBox="0 0 100 100" enable-background="new 0 0 100 100" xml:space="preserve">
<g>
	<path fill="#566F32" d="M45.58,10.173v13.635h8.837V10.173c0,0,0.481,0.101,0.481-0.704c0,0,0.347-3.117-0.481-2.515c0,0,0.481-1.708-1.631-1.81   h-2.758h-0.057h-2.759c-2.112,0.102-1.633,1.81-1.633,1.81C44.753,6.351,45.1,9.469,45.1,9.469   C45.101,10.273,45.58,10.173,45.58,10.173z"/>
	<path fill="#566F32" d="M57.807,38.143c0,0-2.156-2.77-3.39-12.006V25.45H45.58v0.686c-1.229,9.237-3.387,12.006-3.387,12.006   c-3.077,6.774-3.387,14.779-3.387,14.779v7.545h22.385v-7.545C61.191,52.921,60.885,44.917,57.807,38.143z"/>
	<path fill="#566F32" d="M38.807,86.786c0,2.694,3.478,2.534,3.478,2.534h7.688h0.057h7.688c0,0,3.478,0.16,3.478-2.534v-5.368H38.807V86.786z"/>
	<rect fill="#566F32" x="38.807" y="62.105" width="22.386" height="17.67"/>
</g>
</svg>