<svg xmlns="http://www.w3.org/2000/svg" xmlns:xlink="http://www.w3.org/1999/xlink" version="1.1" x="0px" y="0px" width="100px" height="100px" viewBox="0 0 100 100" enable-background="new 0 0 100 100" xml:space="preserve">
<g id="Captions">
</g>
<g id="Your_Icon">
	<g>
		<path fill="#F2F6E6" d="M64.331,72.809H21.19v-43.14h38.347l7.19-7.19c0,0-33.554,0-45.538,0c-7.19,0-7.19,7.19-7.19,7.19s0,30.558,0,43.14    C14,80,21.19,80,21.19,80s28.611,0,43.141,0c7.19,0,7.19-7.191,7.19-7.191V48.842l-7.19,7.191V72.809z"/>
		<path fill="#F2F6E6" d="M85.459,29.372l-13.57-4.415c-0.362,0-0.725,0.137-0.905,0.345c-1.628,1.517-9.139,8.692-13.302,13.934    c-3.075,3.795-6.331,9.592-7.959,12.282c-0.272,0.275-0.906,0.414-1.36,0.414c-0.36,0-1.175-0.691-1.355-0.966    c-1.808-2.209-4.884-5.932-7.779-8.761c-2.173-2.208-4.435-3.866-6.424-5.589c-0.273-0.208-0.545-0.275-0.999-0.275    c-0.629,0-1.263,0.413-1.263,0.965l-2.262,8.76c0,0.413,0.18,0.829,0.542,1.104c1.808,1.517,6.965,5.729,9.226,8.418    c4.255,4.896,7.239,8.828,8.598,10.9c0.088,0.203,1.355,1.447,1.628,1.447c0.36,0,1.086-0.551,1.266-0.76    C52.437,63.658,60.488,52.205,68,44.824c7.418-7.313,14.563-12.141,17.911-14.762c0-0.07,0.089-0.14,0.089-0.278    C86,29.58,85.733,29.372,85.459,29.372z"/>
	</g>
</g>
</svg>