<svg xmlns="http://www.w3.org/2000/svg" xmlns:xlink="http://www.w3.org/1999/xlink" version="1.1" id="Layer_1" x="0px" y="0px" width="100px" height="70.7491082045px" viewBox="0 0 841.891 595.279" enable-background="new 0 0 841.891 595.279" xml:space="preserve">
<g>
	<path fill="#566F32" d="M461.387,305.847h-32.56c-2.6,0-4.99,1.443-6.231,3.729l-5.326,9.794l-11.785-11.905c-0.703-0.712-1.521-1.236-2.395-1.588   c-0.712-0.324-1.499-0.514-2.331-0.514h-2.256c-0.004,0-0.007-0.007-0.014-0.007l-4.242-0.687   c-0.828-0.103-1.576-0.944-1.564-1.906v-10.328c5.581-1.366,9.698-6.341,9.705-12.275c0-4.626-1.109-9.055-3.125-12.985   c-0.511-0.96-1.517-1.651-2.65-1.624h-13.781c-1.136-0.021-2.14,0.664-2.632,1.587c-2.035,3.967-3.143,8.396-3.143,13.021   c0.004,5.935,4.122,10.91,9.702,12.276v10.328c0.014,0.963-0.736,1.804-1.546,1.899l-4.192,0.683   c-0.014,0.002-0.027,0.016-0.041,0.018h-4.79c-3.132,0-5.67,2.534-5.67,5.673c0,3.134,2.539,5.668,5.67,5.668h18.628   c0.189,0.249,0.367,0.505,0.593,0.732l18.373,18.573c1.295,1.37,3.127,2.229,5.159,2.229l44.441,0.091   c6.167,0,7.136-2.45,7.136-8.407v-15.506C470.519,307.756,468.05,305.847,461.387,305.847z M381.254,277.197   c0.344-2.726,1.12-5.314,2.217-7.659h12.499c1.104,2.345,1.873,4.934,2.221,7.659H381.254z M456.924,318.384   c0,1.82-1.421,2.869-3.159,2.331l-7.114-2.201l-7.9,2.808c-1.715,0.611-3.118-0.378-3.118-2.2v-4.168   c0-1.822,1.426-2.871,3.164-2.333l7.111,2.199l7.896-2.806c1.718-0.608,3.12,0.379,3.12,2.201V318.384L456.924,318.384z    M446.281,302.824c12.933,0,23.408-10.483,23.415-23.416c-0.007-12.935-10.482-23.424-23.415-23.424   c-12.941,0-23.425,10.49-23.425,23.424C422.856,292.342,433.34,302.824,446.281,302.824z M446.281,263.286   c8.896,0.011,16.096,7.223,16.112,16.124c-0.017,8.896-7.217,16.103-16.112,16.116c-8.911-0.014-16.112-7.221-16.126-16.116   C430.169,270.509,437.37,263.297,446.281,263.286z"/>
</g>
</svg>